<svg xmlns="http://www.w3.org/2000/svg" viewBox="0 0 512 512">
  <defs>
    <linearGradient id="bg" x1="0%" x2="100%" y1="0%" y2="100%">
      <stop offset="0%" stop-color="#d2f85f"/>
      <stop offset="100%" stop-color="#62b9ff"/>
    </linearGradient>
    <linearGradient id="panel" x1="0%" x2="100%" y1="0%" y2="100%">
      <stop offset="0%" stop-color="#171717"/>
      <stop offset="100%" stop-color="#090909"/>
    </linearGradient>
  </defs>
  <rect width="512" height="512" rx="124" fill="url(#bg)"/>
  <rect x="56" y="56" width="400" height="400" rx="92" fill="url(#panel)"/>
  <rect x="120" y="140" width="272" height="44" rx="22" fill="#2a2a2a"/>
  <circle cx="170" cy="162" r="12" fill="#62b9ff"/>
  <circle cx="216" cy="162" r="12" fill="#ffb95d"/>
  <circle cx="262" cy="162" r="12" fill="#66d99b"/>
  <path d="M148 242c0-34 27-62 62-62h58c53 0 96 43 96 96s-43 96-96 96h-58c-34 0-62-28-62-62s28-62 62-62h74" fill="none" stroke="#d2f85f" stroke-linecap="round" stroke-width="34"/>
  <path d="M284 214h60c34 0 62 28 62 62s-28 62-62 62h-76" fill="none" stroke="#f5f3ed" stroke-linecap="round" stroke-width="34"/>
</svg>
